<?xml version="1.0" encoding="utf-8"?>
<!-- Generator: Adobe Illustrator 17.0.0, SVG Export Plug-In . SVG Version: 6.00 Build 0)  -->
<!DOCTYPE svg PUBLIC "-//W3C//DTD SVG 1.1//EN" "http://www.w3.org/Graphics/SVG/1.1/DTD/svg11.dtd">
<svg version="1.1" id="Ebene_1" xmlns="http://www.w3.org/2000/svg" xmlns:xlink="http://www.w3.org/1999/xlink" x="0px" y="0px"
	 width="137.315px" height="66.313px" viewBox="0 0 137.315 66.313" enable-background="new 0 0 137.315 66.313"
	 xml:space="preserve">
<polygon fill="#FFFFFF" points="-0.001,28.501 -0.001,36.931 137.313,36.931 137.313,28.501 -0.001,28.501 "/>
<polygon fill="#003468" points="-0.001,0 -0.001,32.052 137.313,32.052 137.313,0 -0.001,0 "/>
<path fill="#FF7500" d="M-0.001,66.313h121.132c9.003,0,16.182-7.391,16.182-16.05v-16H-0.001V66.313L-0.001,66.313z"/>
<path fill="#003468" d="M12.521,59.521h-0.232c-2.787,0-5.188-1.937-5.188-5.163c0-1.986,2.995-1.986,2.995,0
	c0,1.394,0.903,2.194,2.193,2.194h0.232c1.29,0,2.271-0.671,2.271-1.962c0-3.227-7.511-3.535-7.511-8.259c0-0.336,0-0.208,0-0.542
	c0-2.762,2.762-4.414,5.007-4.414h0.232c2.658,0,5.034,1.652,5.034,4.129c0,1.911-2.969,1.963-2.969,0.078
	c0-0.671-0.826-1.238-2.065-1.238h-0.232c-1.135,0-2.014,0.619-2.014,1.601c0,0.335,0,0.077,0,0.387
	c0,2.038,7.511,2.942,7.511,8.259C17.786,57.533,15.49,59.521,12.521,59.521L12.521,59.521z"/>
<path fill="#003468" d="M25.502,59.521h-0.231c-2.839,0-5.162-2.194-5.162-5.06v-8.053c0-2.865,2.322-5.033,5.162-5.033h0.231
	c2.607,0,4.775,1.781,5.111,4.311c0.026,0.078,0.026,0.154,0.026,0.259c0,0.929-0.774,1.445-1.523,1.445
	c-0.67,0-1.316-0.413-1.445-1.291c-0.156-1.059-1.059-1.755-2.17-1.755h-0.231c-1.213,0-2.194,0.878-2.194,2.064v8.053
	c0,1.213,1.006,2.091,2.194,2.091h0.231c1.11,0,2.014-0.697,2.17-1.756c0.128-0.877,0.799-1.29,1.445-1.29
	c0.775,0,1.523,0.517,1.523,1.445c0,0.104,0,0.182,0,0.283C30.251,57.713,28.109,59.521,25.502,59.521L25.502,59.521z"/>
<path fill="#003468" d="M38.175,59.521h-0.232c-2.839,0-5.162-2.221-5.162-5.06v-8.027c0-2.864,2.323-5.059,5.162-5.059h0.232
	c2.865,0,5.161,2.194,5.161,5.059v8.002C43.336,57.3,41.04,59.521,38.175,59.521L38.175,59.521z M40.343,46.434
	c0-1.212-0.955-2.09-2.168-2.09h-0.232c-1.213,0-2.169,0.902-2.169,2.09v8.002c0,1.213,0.981,2.116,2.169,2.116h0.232
	c1.213,0,2.168-0.903,2.168-2.091V46.434L40.343,46.434z"/>
<path fill="#003468" d="M51.802,59.521H51.57c-2.839,0-5.162-2.323-5.162-5.163V42.873c0-1.008,0.749-1.498,1.497-1.498
	c0.749,0,1.497,0.49,1.497,1.498v11.484c0,1.188,0.981,2.194,2.169,2.194h0.231c1.214,0,2.194-0.98,2.194-2.194V42.873
	c0-1.008,0.747-1.498,1.497-1.498c0.749,0,1.497,0.49,1.497,1.498v11.484C56.99,57.197,54.668,59.521,51.802,59.521L51.802,59.521z"
	/>
<path fill="#003468" d="M67.572,44.498h-2.064v13.525c0,1.006-0.75,1.497-1.499,1.497c-0.748,0-1.496-0.491-1.496-1.497V44.498
	h-2.065c-0.98,0-1.497-0.748-1.497-1.496c0-0.724,0.516-1.473,1.497-1.473h7.124c1.006,0,1.496,0.749,1.496,1.473
	C69.068,43.75,68.578,44.498,67.572,44.498L67.572,44.498z"/>
<path fill="#003468" d="M81.51,59.365h-6.712c-0.955,0-1.522-0.903-1.522-1.781c0-0.336,0.052-0.646,0.232-0.929l5.859-9.446
	c0.309-0.518,0.309-0.801,0.309-1.188v-0.207c0-0.774-0.671-1.471-1.547-1.471h-0.078c-0.853,0-1.496,0.671-1.496,1.471v0.284
	c0,0.981-0.75,1.47-1.499,1.47c-0.747,0-1.497-0.489-1.497-1.47v-0.388c0-2.503,2.038-4.336,4.492-4.336h0.078
	c2.426,0,4.54,1.808,4.54,4.336l-0.025,0.284c0,0.982-0.36,1.781-0.904,2.685l-4.722,7.717h4.492c1.005,0,1.495,0.749,1.495,1.472
	C83.005,58.616,82.515,59.365,81.51,59.365L81.51,59.365z"/>
<path fill="#003468" d="M93.302,55.829h-0.567v2.194c0,1.006-0.749,1.497-1.496,1.497c-0.749,0-1.496-0.491-1.496-1.497v-2.194
	h-4.055c-1.032,0-1.677-0.567-1.677-1.575c0-0.257,0.052-0.593,0.154-0.825l4.827-11.15c0.283-0.645,0.801-0.903,1.316-0.903
	c0.772,0,1.548,0.594,1.548,1.445c0,0.207-0.025,0.412-0.128,0.646l-4.261,9.395h2.274v-1.497c0-0.981,0.747-1.496,1.496-1.496
	c0.747,0,1.496,0.49,1.496,1.496v1.497h0.567c1.007,0,1.496,0.724,1.496,1.472C94.798,55.08,94.309,55.829,93.302,55.829
	L93.302,55.829z"/>
<path fill="#FFFFFF" d="M9.327,25.362c-0.749,0-1.497-0.489-1.497-1.498V8.715c0-1.007,0.749-1.498,1.497-1.498
	c0.749,0,1.497,0.491,1.497,1.498v15.149C10.823,24.873,10.075,25.362,9.327,25.362L9.327,25.362z"/>
<path fill="#FFFFFF" d="M26.84,25.362c-0.748,0-1.497-0.489-1.497-1.498v-9.445l-2.194,5.057c-0.361,0.852-1.032,1.008-1.523,1.008
	c-0.49,0-1.161-0.155-1.522-1.008l-2.194-5.057v9.445c0,1.009-0.749,1.498-1.497,1.498c-0.748,0-1.497-0.489-1.497-1.498V8.715
	c0-0.801,0.696-1.498,1.497-1.498H16.8c0.955,0,1.317,0.62,1.627,1.292l3.2,7.227l3.201-7.227c0.283-0.672,0.671-1.292,1.625-1.292
	h0.387c0.8,0,1.498,0.697,1.498,1.498v15.149C28.338,24.873,27.588,25.362,26.84,25.362L26.84,25.362z"/>
<path fill="#FFFFFF" d="M44.321,25.362c-0.749,0-1.497-0.489-1.497-1.498v-9.445l-2.194,5.057c-0.361,0.852-1.032,1.008-1.523,1.008
	c-0.49,0-1.161-0.155-1.523-1.008l-2.194-5.057v9.445c0,1.009-0.748,1.498-1.497,1.498c-0.748,0-1.497-0.489-1.497-1.498V8.715
	c0-0.801,0.697-1.498,1.497-1.498h0.387c0.955,0,1.317,0.62,1.626,1.292l3.2,7.227l3.201-7.227c0.284-0.672,0.67-1.292,1.625-1.292
	h0.387c0.8,0,1.497,0.697,1.497,1.498v15.149C45.818,24.873,45.07,25.362,44.321,25.362L44.321,25.362z"/>
<path fill="#FFFFFF" d="M54.917,25.362h-0.231c-2.839,0-5.162-2.22-5.162-5.06v-8.026c0-2.865,2.323-5.059,5.162-5.059h0.231
	c2.866,0,5.162,2.194,5.162,5.059v8.001C60.079,23.143,57.783,25.362,54.917,25.362L54.917,25.362z M57.085,12.276
	c0-1.213-0.955-2.09-2.168-2.09h-0.231c-1.214,0-2.168,0.903-2.168,2.09v8.001c0,1.214,0.981,2.117,2.168,2.117h0.231
	c1.214,0,2.168-0.903,2.168-2.092V12.276L57.085,12.276z"/>
<path fill="#FFFFFF" d="M69.002,25.208h-3.691c-0.8,0-1.497-0.697-1.497-1.497V8.869c0-0.8,0.697-1.497,1.497-1.497h3.691
	c2.891,0,5.008,2.142,5.008,4.955c0,1.756-0.723,2.66-1.653,3.64c1.032,1.007,1.857,2.194,1.857,3.872v0.207
	C74.214,22.91,71.867,25.208,69.002,25.208L69.002,25.208z M69.027,10.34h-2.22v4.208h2.22c1.111,0,1.987-0.903,1.987-2.22
	C71.015,11.063,70.188,10.34,69.027,10.34L69.027,10.34z M71.222,19.839c0-1.29-1.058-2.323-2.194-2.323h-2.22v4.723h2.22
	c1.212,0,2.194-0.98,2.194-2.193V19.839L71.222,19.839z"/>
<path fill="#FFFFFF" d="M78.769,25.362c-0.747,0-1.496-0.489-1.496-1.498V8.715c0-1.007,0.749-1.498,1.496-1.498
	c0.749,0,1.499,0.491,1.499,1.498v15.149C80.268,24.873,79.518,25.362,78.769,25.362L78.769,25.362z"/>
<path fill="#FFFFFF" d="M92.354,25.231h-6.582c-0.8,0-1.496-0.697-1.496-1.497V8.739c0-1.007,0.747-1.498,1.496-1.498
	c0.75,0,1.497,0.491,1.497,1.498v13.524h5.085c1.007,0,1.498,0.748,1.498,1.497C93.852,24.482,93.36,25.231,92.354,25.231
	L92.354,25.231z"/>
<path fill="#FFFFFF" d="M96.847,25.362c-0.75,0-1.497-0.489-1.497-1.498V8.715c0-1.007,0.747-1.498,1.497-1.498
	c0.749,0,1.496,0.491,1.496,1.498v15.149C98.343,24.873,97.596,25.362,96.847,25.362L96.847,25.362z"/>
<path fill="#FFFFFF" d="M111.309,25.224h-7.562c-0.8,0-1.497-0.697-1.497-1.497V8.885c0-0.8,0.697-1.497,1.497-1.497h7.562
	c1.007,0,1.496,0.748,1.496,1.472c0,0.748-0.489,1.497-1.496,1.497h-6.066v4.207h4.028c1.005,0,1.496,0.748,1.496,1.496
	c0,0.724-0.491,1.472-1.496,1.472h-4.028v4.724h6.066c1.007,0,1.496,0.747,1.496,1.496
	C112.806,24.476,112.316,25.224,111.309,25.224L111.309,25.224z"/>
<path fill="#FFFFFF" d="M124.793,25.362h-0.283c-0.955,0-1.345-0.619-1.628-1.29l-4.153-9.653v9.445c0,1.009-0.75,1.498-1.498,1.498
	c-0.749,0-1.496-0.489-1.496-1.498V8.715c0-0.801,0.696-1.498,1.496-1.498h0.336c0.955,0,1.316,0.62,1.625,1.292l4.105,9.292V8.689
	c0-0.981,0.747-1.472,1.496-1.472c0.747,0,1.496,0.491,1.496,1.472v15.175C126.289,24.666,125.593,25.362,124.793,25.362
	L124.793,25.362z"/>
</svg>
